<?xml version="1.0" encoding="UTF-8" standalone="no"?>
<!-- Created with Inkscape (http://www.inkscape.org/) -->

<svg
   xmlns:dc="http://purl.org/dc/elements/1.1/"
   xmlns:cc="http://creativecommons.org/ns#"
   xmlns:rdf="http://www.w3.org/1999/02/22-rdf-syntax-ns#"
   xmlns:svg="http://www.w3.org/2000/svg"
   xmlns="http://www.w3.org/2000/svg"
   xmlns:sodipodi="http://sodipodi.sourceforge.net/DTD/sodipodi-0.dtd"
   xmlns:inkscape="http://www.inkscape.org/namespaces/inkscape"
   id="svg2"
   version="1.1"
   inkscape:version="0.48.2 r9819"
   width="85.185547"
   height="63.066406"
   xml:space="preserve"
   sodipodi:docname="ae.svg"><metadata
     id="metadata8"><rdf:RDF><cc:Work
         rdf:about=""><dc:format>image/svg+xml</dc:format><dc:type
           rdf:resource="http://purl.org/dc/dcmitype/StillImage" /><dc:title></dc:title></cc:Work></rdf:RDF></metadata><defs
     id="defs6" /><sodipodi:namedview
     pagecolor="#ffffff"
     bordercolor="#666666"
     borderopacity="1"
     objecttolerance="10"
     gridtolerance="10"
     guidetolerance="10"
     inkscape:pageopacity="0"
     inkscape:pageshadow="2"
     inkscape:window-width="1290"
     inkscape:window-height="854"
     id="namedview4"
     showgrid="false"
     inkscape:zoom="3.9202517"
     inkscape:cx="25.416517"
     inkscape:cy="24.162161"
     inkscape:window-x="0"
     inkscape:window-y="0"
     inkscape:window-maximized="0"
     inkscape:current-layer="g10"
     fit-margin-top="10"
     fit-margin-left="10"
     fit-margin-right="10"
     fit-margin-bottom="10" /><g
     inkscape:groupmode="layer"
     id="layer1"
     inkscape:label="Layer"
     transform="translate(5.2674365,4.6421828)" /><g
     id="g10"
     inkscape:groupmode="layer"
     inkscape:label="Vektor-Smart-Objekt"
     transform="matrix(1.25,0,0,-1.25,5.2674365,99.553804)"><g
       transform="matrix(1,0,0,-1,-0.61220558,0)"
       id="text12"><path
         d="m 51.126772,-57.375462 c -0.01958,-2.949196 -0.839893,-5.302709 -2.460937,-7.060546 -1.601609,-1.757785 -3.740279,-2.63669 -6.416016,-2.636719 -2.98832,2.9e-5 -5.390661,0.849637 -7.207031,2.548828 -1.796908,1.699243 -2.832063,4.091819 -3.105469,7.177734 l 19.189453,-0.0293 m -21.181641,-8.876953 c 1.445282,-1.757782 3.203093,-3.095672 5.273438,-4.013672 2.070276,-0.917935 4.394492,-1.376919 6.972656,-1.376953 4.414017,3.4e-5 7.910107,1.425814 10.488281,4.277344 2.578071,2.832058 3.867132,6.689476 3.867188,11.572266 l 0,2.636718 -24.785156,0 c 0.234343,3.730481 1.347624,6.572275 3.339843,8.525391 1.992152,1.95313 4.775352,2.929691 8.34961,2.929688 2.031205,3e-6 4.023391,-0.253903 5.976562,-0.761719 1.953075,-0.527339 3.906198,-1.308588 5.859375,-2.34375 l 0,5.097656 c -1.953177,0.820313 -3.945363,1.445313 -5.976562,1.875 -2.031297,0.429687 -4.082076,0.64453 -6.152344,0.644531 -3.261758,-1e-6 -6.103552,-0.585937 -8.525391,-1.757812 -2.421906,-1.191404 -4.384795,-2.949215 -5.888671,-5.273438 -1.425808,2.343754 -3.193385,4.101565 -5.302735,5.273438 -2.109395,1.171875 -4.560565,1.757811 -7.353515,1.757812 -3.691418,-1e-6 -6.5625092,-0.908203 -8.6132817,-2.724609 -2.0507859,-1.835934 -3.0761755,-4.394525 -3.0761719,-7.675781 -3.6e-6,-3.691393 1.2304639,-6.474594 3.6914063,-8.34961 2.4804593,-1.87498 6.1718613,-2.812479 11.0742183,-2.8125 l 7.558594,0 0,-0.527343 c -2.6e-5,-2.480445 -0.820337,-4.394506 -2.460937,-5.742188 -1.621116,-1.367159 -3.90627,-2.050752 -6.855469,-2.050781 -1.875015,2.9e-5 -3.701185,0.224638 -5.478516,0.673828 -1.777353,0.449247 -3.4863355,1.123074 -5.1269528,2.021484 l 0,-4.980468 c 1.9726482,-0.761687 3.8867088,-1.328093 5.7421878,-1.699219 1.855455,-0.390592 3.662094,-0.585904 5.419922,-0.585938 2.773417,3.4e-5 5.19529,0.468783 7.265625,1.40625 2.089817,0.937532 3.662081,2.265655 4.716796,3.984375 m -8.583984,11.71875 c -4.355485,1.7e-5 -7.37306,0.498063 -9.052734,1.494141 -1.679698,0.996108 -2.5195406,2.695325 -2.5195316,5.097656 -9e-6,1.914071 0.6249906,3.437507 1.8749996,4.570313 1.26952,1.113285 2.988268,1.669925 5.15625,1.669922 2.988263,3e-6 5.380838,-1.054683 7.177735,-3.164063 1.816381,-2.128897 2.724583,-4.95116 2.724609,-8.466797 l 0,-1.201172 -5.361328,0"
         style="font-size:60px;font-variant:normal;font-weight:normal;font-stretch:normal;writing-mode:lr-tb;fill:#ffffff;fill-opacity:1;fill-rule:nonzero;stroke:none;font-family:Engelhardt;-inkscape-font-specification:Engelhardt"
         id="path3014"
         inkscape:connector-curvature="0" /></g></g></svg>