<?xml version="1.0" encoding="UTF-8" standalone="no"?>
<!-- Created with Inkscape (http://www.inkscape.org/) -->

<svg
   xmlns:dc="http://purl.org/dc/elements/1.1/"
   xmlns:cc="http://creativecommons.org/ns#"
   xmlns:rdf="http://www.w3.org/1999/02/22-rdf-syntax-ns#"
   xmlns:svg="http://www.w3.org/2000/svg"
   xmlns="http://www.w3.org/2000/svg"
   version="1.1"
   width="286.61499"
   height="70.925873"
   id="svg2"
   xml:space="preserve"><metadata
     id="metadata8"><rdf:RDF><cc:Work
         rdf:about=""><dc:format>image/svg+xml</dc:format><dc:type
           rdf:resource="http://purl.org/dc/dcmitype/StillImage" /><dc:title></dc:title></cc:Work></rdf:RDF></metadata><defs
     id="defs6"><clipPath
       id="clipPath16"><path
         d="m 0,56.741 229.292,0 L 229.292,0 0,0 0,56.741 z"
         id="path18" /></clipPath></defs><g
     transform="matrix(1.25,0,0,-1.25,0,70.925875)"
     id="g10"><g
       id="g12"><g
         clip-path="url(#clipPath16)"
         id="g14"><g
           transform="translate(23.328094,37.517105)"
           id="g20"><path
             d="m 0,0 -3.457,-4.68 c -0.432,-0.576 -1.007,-0.361 -1.584,0 -0.72,0.432 -2.016,1.728 -3.816,1.728 -1.368,0 -5.256,-1.224 -5.256,-5.041 0,-3.96 2.376,-3.672 2.376,-4.464 0,-0.72 -2.376,-1.224 -2.376,-3.744 l 0,-19.154 c 0,-0.576 -0.504,-1.08 -1.153,-1.08 l -6.984,0 c -0.576,0 -1.08,0.504 -1.08,1.08 l 0,37.659 c 0,0.648 0.432,0.936 1.08,1.153 l 6.625,1.584 c 0.576,0.071 0.864,-0.216 1.224,-0.721 0.359,-0.575 1.008,-1.944 1.872,-1.944 1.656,0 2.232,2.736 5.904,2.736 2.305,0 4.969,-1.008 6.697,-3.528 C 0.504,1.008 0.36,0.504 0,0"
             id="path22"
             style="fill:#ffffff;fill-opacity:1;fill-rule:nonzero;stroke:none" /></g><g
           transform="translate(131.5815,1.0820007)"
           id="g24"><path
             d="m 0,0 -7.705,0 c -0.648,0 -1.152,0.504 -1.152,1.08 l 0,27.795 c 0,3.816 -1.8,5.112 -3.888,5.112 -3.817,0 -6.481,-2.376 -6.481,-5.401 l 0,-27.506 C -19.226,0.504 -19.73,0 -20.306,0 l -6.913,0 c -0.648,0 -1.08,0.504 -1.08,1.08 l 0,27.795 c 0,3.816 -1.872,4.68 -3.96,4.68 -3.024,0 -6.408,-1.944 -6.408,-4.969 l 0,-27.506 C -38.667,0.504 -39.171,0 -39.748,0 l -6.912,0 c -0.576,0 -1.08,0.504 -1.08,1.08 l 0,37.011 c 0,0.576 0.504,1.009 1.08,1.08 l 6.696,1.584 c 1.152,0.217 1.512,-1.655 2.448,-1.655 1.513,0 2.737,2.447 8.641,2.447 3.889,0 6.193,-1.367 8.857,-3.528 1.008,0.648 3.96,3.528 10.657,3.528 7.993,0 10.441,-6.048 10.441,-10.8 L 1.08,1.08 C 1.08,0.504 0.648,0 0,0"
             id="path26"
             style="fill:#ffffff;fill-opacity:1;fill-rule:nonzero;stroke:none" /></g><g
           transform="translate(163.2803,29.164597)"
           id="g28"><path
             d="m 0,0 c 0,4.968 -2.664,7.201 -6.625,7.201 -3.24,0 -6.48,-1.729 -6.48,-4.753 l 0,-18.506 c 0,-3.096 2.304,-5.976 6.336,-5.976 4.033,0 6.769,2.808 6.769,7.489 L 0,0 z m -5.185,-29.163 c -2.448,0 -5.976,1.009 -8.64,2.881 -0.36,-1.153 -0.72,-1.801 -1.728,-1.801 l -5.833,0 c -0.576,0 -1.08,0.504 -1.08,1.081 l 0,53.428 c 0,0.648 0.504,1.152 1.08,1.152 l 7.201,0 c 0.648,0 1.152,-0.504 1.152,-1.08 l 0,-14.185 c 0,-1.008 0.432,-1.08 1.008,-1.08 1.008,0 2.664,2.232 8.065,2.232 7.992,0 14.113,-5.976 14.113,-22.322 0,-14.185 -7.417,-20.306 -15.338,-20.306"
             id="path30"
             style="fill:#ffffff;fill-opacity:1;fill-rule:nonzero;stroke:none" /></g><g
           transform="translate(188.7095,1.0820007)"
           id="g32"><path
             d="m 0,0 -7.416,0 c -0.576,0 -1.081,0.504 -1.081,1.08 l 0,53.501 c 0,0.576 0.505,1.08 1.081,1.08 l 7.416,0 c 0.648,0 1.152,-0.504 1.152,-1.08 l 0,-53.501 C 1.152,0.504 0.648,0 0,0"
             id="path34"
             style="fill:#ffffff;fill-opacity:1;fill-rule:nonzero;stroke:none" /></g><g
           transform="translate(213.6655,36.077103)"
           id="g36"><path
             d="m 0,0 c -4.536,0 -6.984,-1.944 -6.984,-9.361 0,-0.576 0.288,-0.792 0.935,-0.792 l 11.882,0 c 0.36,0 0.648,0.216 0.648,0.576 C 6.481,-6.625 6.409,0 0,0 m 15.626,-15.697 c 0,-0.649 -0.504,-1.153 -1.151,-1.153 l -20.524,0 c -0.647,0 -1.008,-0.215 -1.008,-0.863 l 0,-2.089 c 0.073,-6.624 2.017,-9.72 7.057,-9.72 5.185,0 6.049,3.959 6.193,5.184 0.072,0.648 0.504,1.152 1.153,1.152 l 6.049,0 c 0.647,0 1.151,-0.432 1.151,-1.152 0,-7.417 -6.408,-11.737 -14.546,-11.737 -9.937,0 -17.21,6.768 -17.21,21.314 0,13.897 6.337,21.313 17.21,21.313 10.01,0 15.626,-6.768 15.626,-15.553 l 0,-6.696 z"
             id="path38"
             style="fill:#ffffff;fill-opacity:1;fill-rule:nonzero;stroke:none" /></g><g
           transform="translate(62.282196,36.167496)"
           id="g40"><path
             d="m 0,0 c -4.32,0 -6.697,-1.944 -6.697,-9.361 0,-0.576 0.288,-0.792 0.936,-0.792 l 11.306,0 c 0.287,0 0.576,0.216 0.576,0.576 C 6.121,-6.625 6.049,0 0,0 m -15.481,-5.905 c 0,3.097 -1.801,6.049 -5.689,6.049 -3.816,0 -6.841,-2.592 -6.841,-7.561 l 0,-14.689 c 0,-4.681 2.665,-6.841 6.481,-6.841 3.816,0 6.049,2.952 6.049,5.977 l 0,17.065 z m 30.314,-9.793 c 0,-0.648 -0.504,-1.152 -1.151,-1.152 l -19.299,0 c -0.576,0 -1.08,-0.432 -1.08,-1.08 l 0,-1.871 c 0,-6.625 1.801,-9.721 6.697,-9.721 4.824,0 5.688,3.959 5.832,5.184 0.072,0.648 0.504,1.152 1.08,1.152 l 5.761,0 c 0.576,0 1.08,-0.432 1.08,-1.152 0,-7.416 -6.048,-11.737 -13.753,-11.737 -3.024,0 -6.448,1.458 -8.315,3.429 0,-1.406 -0.974,-2.349 -2.054,-2.349 l -2.881,0 c 0,0 -1.943,0 -2.447,2.088 -2.377,-1.944 -5.041,-3.168 -7.417,-3.168 -7.417,0 -14.258,6.048 -14.258,20.234 0,16.417 7.201,22.393 16.49,22.393 2.664,0 4.968,-0.792 6.769,-2.232 0.432,0.576 1.008,1.657 2.16,1.657 l 2.448,0 c 0.693,-0.02 1.349,-0.77 1.49,-1.879 1.906,1.765 4.919,2.454 8.015,2.454 9.505,0 14.833,-6.768 14.833,-15.553 l 0,-6.697 z"
             id="path42"
             style="fill:#ffffff;fill-opacity:1;fill-rule:nonzero;stroke:none" /></g></g></g></g></svg>